<?xml version="1.0" encoding="utf-8"?>
<!-- Generator: Adobe Illustrator 19.1.1, SVG Export Plug-In . SVG Version: 6.00 Build 0)  -->
<svg version="1.1" id="Layer_1" xmlns="http://www.w3.org/2000/svg" xmlns:xlink="http://www.w3.org/1999/xlink" x="0px" y="0px"
	 viewBox="-415 217 128 128" style="enable-background:new -415 217 128 128;" xml:space="preserve">
<style type="text/css">
	.st0{opacity:0.6;fill:#D1D1D1;enable-background:new    ;}
	.st1{fill:url(#SVGID_1_);}
	.st2{fill:#FFFFFF;}
</style>
<path class="st0" d="M-291.8,345h-110.3c-2.7,0-4.8-2.2-4.8-4.8V229.9c0-2.7,2.2-4.8,4.8-4.8h110.3c2.7,0,4.8,2.2,4.8,4.8v110.3
	C-287,342.8-289.2,345-291.8,345z"/>
<linearGradient id="SVGID_1_" gradientUnits="userSpaceOnUse" x1="-413.5877" y1="335.5441" x2="-296.4456" y2="218.402">
	<stop  offset="0" style="stop-color:#F8A72B"/>
	<stop  offset="1" style="stop-color:#F8C03B"/>
</linearGradient>
<path class="st1" d="M-299.9,337h-110.3c-2.7,0-4.8-2.2-4.8-4.8V221.8c0-2.7,2.2-4.8,4.8-4.8h110.3c2.7,0,4.8,2.2,4.8,4.8v110.3
	C-295,334.8-297.2,337-299.9,337z"/>
<g>
	<path class="st2" d="M-337.9,262.9c0,9.5-1.7,18.6-5.8,27.3c-0.8,1.7-0.8,1.7-2.2,0.4c-0.4-0.4-0.7-0.7-1.1-1.1
		c-2.4-2.2-3.1-4.3-1.7-7.7c3.5-8.4,3.5-17.4,2.8-26.4c-0.4-4.7-1.2-9.2-2.9-13.6c-0.6-1.6-1.4-3.2-2.5-4.6c-1.6-1.9-3-1.9-4.5,0.1
		c-1.5,1.8-2.4,4-3,6.2c-2.2,7.2-2.9,14.5-2.7,22c0.4,10.8,3.6,20.7,10.2,29.4c6.7,8.7,15.6,14.4,25.7,18.4
		c5.5,2.2,11.3,3.7,17.2,4.8c2.5,0.4,3.9,2,3.8,4.2c-0.1,1.8-1.6,3.6-3.3,3.7c-1.3,0.1-2.7-0.3-4-0.5c-12.4-2.5-23.9-6.9-34.1-14.5
		c-2.3-1.8-4.6-3.6-6.6-5.8c-0.6-0.6-0.9-0.8-1.6-0.1c-11,10.9-24.5,16.7-39.4,20c-1.5,0.3-3.1,0.7-4.6,0.9c-2.3,0.4-4.3-0.8-4.7-3
		c-0.5-2.2,0.9-4.3,3.2-4.7c7.6-1.4,15.1-3.5,22.2-6.7c6.7-3.1,12.9-7.1,18.1-12.4c0.5-0.5,1-0.9,0.4-1.8
		c-7.8-11.3-10.5-23.9-10-37.4c0.3-7.8,1.3-15.4,4.4-22.7c1-2.4,2.3-4.6,4.2-6.4c4.1-4,9.7-4,13.9,0c2.6,2.5,4.1,5.7,5.2,9.1
		C-338.8,247.5-338,255.2-337.9,262.9z"/>
</g>
</svg>
