<?xml version="1.0" encoding="utf-8"?>
<!-- Generator: Adobe Illustrator 19.1.1, SVG Export Plug-In . SVG Version: 6.00 Build 0)  -->
<svg version="1.1" id="Layer_1" xmlns="http://www.w3.org/2000/svg" xmlns:xlink="http://www.w3.org/1999/xlink" x="0px" y="0px"
	 viewBox="-467 269 24 24" style="enable-background:new -467 269 24 24;" xml:space="preserve">
<style type="text/css">
	.st0{fill:url(#SVGID_1_);}
	.st1{fill:#FFFFFF;}
</style>
<linearGradient id="SVGID_1_" gradientUnits="userSpaceOnUse" x1="-466.3929" y1="292.3929" x2="-443.6071" y2="269.6071">
	<stop  offset="0" style="stop-color:#F8A72B"/>
	<stop  offset="1" style="stop-color:#F8C03B"/>
</linearGradient>
<path class="st0" d="M-445.1,293h-19.9c-1.1,0-2.1-0.9-2.1-2.1v-19.9c0-1.1,0.9-2.1,2.1-2.1h19.9c1.1,0,2.1,0.9,2.1,2.1v19.9
	C-443,292.1-443.9,293-445.1,293z"/>
<g>
	<path class="st1" d="M-451.6,278.2c0,1.9-0.3,3.7-1.2,5.5c-0.2,0.3-0.2,0.3-0.4,0.1c-0.1-0.1-0.1-0.1-0.2-0.2
		c-0.5-0.4-0.6-0.9-0.3-1.5c0.7-1.7,0.7-3.5,0.6-5.3c-0.1-0.9-0.2-1.8-0.6-2.7c-0.1-0.3-0.3-0.6-0.5-0.9c-0.3-0.4-0.6-0.4-0.9,0
		c-0.3,0.4-0.5,0.8-0.6,1.2c-0.4,1.4-0.6,2.9-0.5,4.4c0.1,2.2,0.7,4.1,2,5.9c1.3,1.7,3.1,2.9,5.1,3.7c1.1,0.4,2.3,0.7,3.4,1
		c0.5,0.1,0.8,0.4,0.8,0.8c0,0.4-0.3,0.7-0.7,0.7c-0.3,0-0.5-0.1-0.8-0.1c-2.5-0.5-4.8-1.4-6.8-2.9c-0.5-0.4-0.9-0.7-1.3-1.2
		c-0.1-0.1-0.2-0.2-0.3,0c-2.2,2.2-4.9,3.3-7.9,4c-0.3,0.1-0.6,0.1-0.9,0.2c-0.5,0.1-0.9-0.2-0.9-0.6c-0.1-0.4,0.2-0.9,0.6-0.9
		c1.5-0.3,3-0.7,4.4-1.3c1.4-0.6,2.6-1.4,3.6-2.5c0.1-0.1,0.2-0.2,0.1-0.4c-1.6-2.3-2.1-4.8-2-7.5c0.1-1.6,0.3-3.1,0.9-4.5
		c0.2-0.5,0.5-0.9,0.8-1.3c0.8-0.8,1.9-0.8,2.8,0c0.5,0.5,0.8,1.1,1,1.8C-451.8,275.1-451.6,276.6-451.6,278.2z"/>
</g>
</svg>
