<?xml version="1.0" encoding="utf-8"?>
<!-- Generator: Adobe Illustrator 19.1.1, SVG Export Plug-In . SVG Version: 6.00 Build 0)  -->
<svg version="1.1" id="Layer_1" xmlns="http://www.w3.org/2000/svg" xmlns:xlink="http://www.w3.org/1999/xlink" x="0px" y="0px"
	 viewBox="-404 206 150 150" style="enable-background:new -404 206 150 150;" xml:space="preserve">
<style type="text/css">
	.st0{fill:url(#SVGID_1_);}
	.st1{fill:#FFFFFF;}
</style>
<linearGradient id="SVGID_1_" gradientUnits="userSpaceOnUse" x1="-404" y1="356" x2="-254" y2="206">
	<stop  offset="0" style="stop-color:#F8A72B"/>
	<stop  offset="1" style="stop-color:#F8C03B"/>
</linearGradient>
<rect x="-404" y="206" class="st0" width="150" height="150"/>
<g>
	<path class="st1" d="M-307.5,263.4c0,11.9-2.1,23.3-7.3,34.2c-1,2.1-1,2.1-2.8,0.5c-0.5-0.5-0.9-0.9-1.4-1.4
		c-3-2.8-3.9-5.4-2.1-9.6c4.4-10.5,4.4-21.8,3.5-33c-0.5-5.9-1.5-11.5-3.6-17c-0.8-2-1.8-4-3.1-5.8c-2-2.4-3.8-2.4-5.6,0.1
		c-1.9,2.3-3,5-3.8,7.8c-2.8,9-3.6,18.1-3.4,27.5c0.5,13.5,4.5,25.9,12.8,36.8c8.4,10.9,19.5,18,32.2,23c6.9,2.8,14.1,4.6,21.5,6
		c3.1,0.5,4.9,2.5,4.8,5.3c-0.1,2.3-2,4.5-4.1,4.6c-1.6,0.1-3.4-0.4-5-0.6c-15.5-3.1-29.9-8.6-42.7-18.1c-2.9-2.3-5.8-4.5-8.3-7.3
		c-0.8-0.8-1.1-1-2-0.1c-13.8,13.6-30.6,20.9-49.3,25c-1.9,0.4-3.9,0.9-5.8,1.1c-2.9,0.5-5.4-1-5.9-3.8c-0.6-2.8,1.1-5.4,4-5.9
		c9.5-1.8,18.9-4.4,27.8-8.4c8.4-3.9,16.1-8.9,22.6-15.5c0.6-0.6,1.3-1.1,0.5-2.3c-9.8-14.1-13.1-29.9-12.5-46.8
		c0.4-9.8,1.6-19.3,5.5-28.4c1.3-3,2.9-5.8,5.3-8c5.1-5,12.1-5,17.4,0c3.3,3.1,5.1,7.1,6.5,11.4
		C-308.7,244.2-307.7,253.8-307.5,263.4z"/>
</g>
</svg>
